<svg width="18" height="18" viewBox="0 0 18 18" fill="none" xmlns="http://www.w3.org/2000/svg">
    <path fill-rule="evenodd" clip-rule="evenodd" d="M3 2C2.44772 2 2 2.44772 2 3V6.33333C2 6.88562 1.55228 7.33333 1 7.33333C0.447715 7.33333 0 6.88562 0 6.33333V3C0 1.34315 1.34315 0 3 0H6.33333C6.88562 0 7.33333 0.447715 7.33333 1C7.33333 1.55228 6.88562 2 6.33333 2H3ZM10.6667 1C10.6667 0.447715 11.1144 0 11.6667 0H15C16.6569 0 18 1.34315 18 3V6.33333C18 6.88562 17.5523 7.33333 17 7.33333C16.4477 7.33333 16 6.88562 16 6.33333V3C16 2.44772 15.5523 2 15 2H11.6667C11.1144 2 10.6667 1.55228 10.6667 1ZM1 10.6667C1.55228 10.6667 2 11.1144 2 11.6667V15C2 15.5523 2.44772 16 3 16H6.33333C6.88562 16 7.33333 16.4477 7.33333 17C7.33333 17.5523 6.88562 18 6.33333 18H3C1.34315 18 0 16.6569 0 15V11.6667C0 11.1144 0.447715 10.6667 1 10.6667ZM17 10.6667C17.5523 10.6667 18 11.1144 18 11.6667V15C18 16.6569 16.6569 18 15 18H11.6667C11.1144 18 10.6667 17.5523 10.6667 17C10.6667 16.4477 11.1144 16 11.6667 16H15C15.5523 16 16 15.5523 16 15V11.6667C16 11.1144 16.4477 10.6667 17 10.6667Z" fill="white"/>
</svg>
