<svg width="20" height="20" viewBox="0 0 20 20" fill="none" xmlns="http://www.w3.org/2000/svg">
    <path d="M8 1C8 0.447715 7.55228 0 7 0C6.44772 0 6 0.447715 6 1V5C6 5.55228 5.55228 6 5 6H1C0.447715 6 0 6.44772 0 7C0 7.55228 0.447715 8 1 8H5C6.65685 8 8 6.65685 8 5V1Z" fill="white"/>
    <path d="M12 1C12 0.447715 12.4477 0 13 0C13.5523 0 14 0.447715 14 1V5C14 5.55228 14.4477 6 15 6H19C19.5523 6 20 6.44772 20 7C20 7.55228 19.5523 8 19 8H15C13.3431 8 12 6.65685 12 5V1Z" fill="white"/>
    <path d="M13 20C12.4477 20 12 19.5523 12 19V15C12 13.3431 13.3431 12 15 12H19C19.5523 12 20 12.4477 20 13C20 13.5523 19.5523 14 19 14H15C14.4477 14 14 14.4477 14 15V19C14 19.5523 13.5523 20 13 20Z" fill="white"/>
    <path d="M8 19C8 19.5523 7.55228 20 7 20C6.44772 20 6 19.5523 6 19V15C6 14.4477 5.55228 14 5 14H1C0.447715 14 0 13.5523 0 13C0 12.4477 0.447715 12 1 12H5C6.65685 12 8 13.3431 8 15V19Z" fill="white"/>
</svg>
