<svg width="24" height="24" viewBox="0 0 24 24" fill="none" xmlns="http://www.w3.org/2000/svg">
    <path fill-rule="evenodd" clip-rule="evenodd" d="M9 4H6L6 20H9V4ZM6 2C4.89543 2 4 2.89543 4 4V20C4 21.1046 4.89543 22 6 22H9C10.1046 22 11 21.1046 11 20V4C11 2.89543 10.1046 2 9 2H6Z" fill="white"/>
    <path fill-rule="evenodd" clip-rule="evenodd" d="M18 4H15L15 20H18V4ZM15 2C13.8954 2 13 2.89543 13 4V20C13 21.1046 13.8954 22 15 22H18C19.1046 22 20 21.1046 20 20V4C20 2.89543 19.1046 2 18 2H15Z" fill="white"/>
</svg>
