<svg width="25" height="24" viewBox="0 0 25 24" fill="none" xmlns="http://www.w3.org/2000/svg">
    <path fill-rule="evenodd" clip-rule="evenodd" d="M3.34374 12.5775C3.57714 12.0769 4.17213 11.8604 4.67267 12.0938L8.2979 13.7842C8.79844 14.0176 9.01499 14.6126 8.78159 15.1132C8.54818 15.6137 7.9532 15.8303 7.45266 15.5968L4.73374 14.329L3.46588 17.0479C3.23248 17.5485 2.6375 17.765 2.13696 17.5316C1.63642 17.2982 1.41986 16.7032 1.65327 16.2027L3.34374 12.5775Z" fill="white"/>
    <path fill-rule="evenodd" clip-rule="evenodd" d="M21.6563 11.4225C21.4229 11.9231 20.8279 12.1396 20.3273 11.9062L16.7021 10.2158C16.2016 9.98236 15.985 9.38738 16.2184 8.88684C16.4518 8.3863 17.0468 8.16974 17.5473 8.40315L20.2663 9.67101L21.5341 6.95208C21.7675 6.45154 22.3625 6.23499 22.863 6.46839C23.3636 6.7018 23.5801 7.29678 23.3467 7.79732L21.6563 11.4225Z" fill="white"/>
    <path fill-rule="evenodd" clip-rule="evenodd" d="M12.5 5C9.46375 5 6.87944 6.82275 5.8166 9.38336C5.60487 9.89345 5.01972 10.1353 4.50964 9.9236C3.99955 9.71187 3.75767 9.12673 3.9694 8.61664C5.34041 5.31359 8.65083 3 12.5 3C16.8629 3 20.5383 5.97423 21.474 9.9956C21.5991 10.5335 21.2645 11.071 20.7266 11.1962C20.1887 11.3214 19.6512 10.9868 19.526 10.4488C18.8038 7.34492 15.945 5 12.5 5ZM4.27336 12.8038C4.81127 12.6786 5.3488 13.0132 5.47396 13.5512C6.19618 16.6551 9.05493 19 12.5 19C15.5362 19 18.1205 17.1772 19.1834 14.6166C19.3951 14.1065 19.9802 13.8647 20.4903 14.0764C21.0004 14.2881 21.2423 14.8733 21.0306 15.3834C19.6595 18.6864 16.3491 21 12.5 21C8.13701 21 4.46168 18.0258 3.526 14.0044C3.40084 13.4665 3.73544 12.929 4.27336 12.8038Z" fill="white"/>
</svg>
