<svg width="24" height="24" viewBox="0 0 24 24" fill="none" xmlns="http://www.w3.org/2000/svg">
    <path fill-rule="evenodd" clip-rule="evenodd" d="M12.4332 4.09869C12.7797 4.26521 13 4.61559 13 4.99999V19C13 19.3844 12.7797 19.7348 12.4332 19.9013C12.0867 20.0678 11.6755 20.021 11.3753 19.7809L6.64922 16H3C2.44772 16 2 15.5523 2 15V8.99999C2 8.44771 2.44772 7.99999 3 7.99999H6.64922L11.3753 4.21913C11.6755 3.97899 12.0867 3.93217 12.4332 4.09869ZM11 7.08062L7.62469 9.78086C7.44738 9.92271 7.22707 9.99999 7 9.99999H4V14H7C7.22707 14 7.44738 14.0773 7.62469 14.2191L11 16.9194V7.08062Z" fill="white"/>
    <path fill-rule="evenodd" clip-rule="evenodd" d="M18.1172 4.21217C18.5523 3.87202 19.1808 3.949 19.5209 4.38411C21.1256 6.43676 22 9.17829 22 12C22 14.8217 21.1256 17.5632 19.5209 19.6159C19.1808 20.051 18.5523 20.128 18.1172 19.7878C17.6821 19.4477 17.6051 18.8192 17.9453 18.3841C19.2436 16.7233 20 14.4291 20 12C20 9.57094 19.2436 7.27666 17.9453 5.61589C17.6051 5.18078 17.6821 4.55232 18.1172 4.21217ZM15.3841 7.70722C15.8192 7.36707 16.4477 7.44405 16.7878 7.87916C17.6668 9.00345 18.1335 10.486 18.1335 11.995C18.1335 13.5041 17.6668 14.9866 16.7878 16.1109C16.4477 16.546 15.8192 16.623 15.3841 16.2829C14.949 15.9427 14.872 15.3143 15.2122 14.8792C15.7848 14.1467 16.1335 13.1114 16.1335 11.995C16.1335 10.8787 15.7848 9.84335 15.2122 9.11094C14.872 8.67583 14.949 8.04737 15.3841 7.70722Z" fill="white"/>
</svg>
