<svg width="24" height="24" viewBox="0 0 24 24" fill="none" xmlns="http://www.w3.org/2000/svg">
    <path fill-rule="evenodd" clip-rule="evenodd" d="M11.4068 4.08652C11.7676 4.24718 12 4.60511 12 5.00002V19C12 19.3949 11.7676 19.7529 11.4068 19.9135C11.0461 20.0742 10.6246 20.0075 10.331 19.7433L6.17182 16H3C2.44772 16 2 15.5523 2 15V9.00002C2 8.44773 2.44772 8.00002 3 8.00002H6.17182L10.331 4.25672C10.6246 3.99254 11.0461 3.92585 11.4068 4.08652ZM10 7.24538L7.22452 9.74331C7.0409 9.90858 6.8026 10 6.55556 10H4V14H6.55556C6.8026 14 7.0409 14.0915 7.22452 14.2567L10 16.7547V7.24538Z" fill="white"/>
    <path fill-rule="evenodd" clip-rule="evenodd" d="M21.7071 9.70711C22.0976 9.31658 22.0976 8.68342 21.7071 8.29289C21.3166 7.90237 20.6834 7.90237 20.2929 8.29289L18 10.5858L15.7071 8.29289C15.3166 7.90237 14.6834 7.90237 14.2929 8.29289C13.9024 8.68342 13.9024 9.31658 14.2929 9.70711L16.5858 12L14.2929 14.2929C13.9024 14.6834 13.9024 15.3166 14.2929 15.7071C14.6834 16.0976 15.3166 16.0976 15.7071 15.7071L18 13.4142L20.2929 15.7071C20.6834 16.0976 21.3166 16.0976 21.7071 15.7071C22.0976 15.3166 22.0976 14.6834 21.7071 14.2929L19.4142 12L21.7071 9.70711Z" fill="white"/>
</svg>
