<svg width="24" height="24" viewBox="0 0 24 24" fill="none" xmlns="http://www.w3.org/2000/svg">
    <path fill-rule="evenodd" clip-rule="evenodd" d="M12.4332 4.0987C12.7797 4.26522 13 4.61559 13 5V19C13 19.3844 12.7797 19.7348 12.4332 19.9013C12.0867 20.0678 11.6755 20.021 11.3753 19.7809L6.64922 16H3C2.44772 16 2 15.5523 2 15V9C2 8.44772 2.44772 8 3 8H6.64922L11.3753 4.21913C11.6755 3.979 12.0867 3.93218 12.4332 4.0987ZM11 7.08062L7.62469 9.78087C7.44738 9.92272 7.22707 10 7 10H4V14H7C7.22707 14 7.44738 14.0773 7.62469 14.2191L11 16.9194V7.08062Z" fill="white"/>
</svg>
