<?xml version="1.0" encoding="utf-8"?>
<svg xmlns="http://www.w3.org/2000/svg"
	xmlns:xlink="http://www.w3.org/1999/xlink"
	width="19px" height="10px" viewBox="0 0 19 10">
<path fillRule="evenodd" d="M 0.93 10.04C 0.93 10.04 0.01 9.08 0.01 9.08 0.01 9.08 9.5 0.01 9.5 0.01 9.5 0.01 10.42 0.97 10.42 0.97 10.42 0.97 0.93 10.04 0.93 10.04M 8.58 0.97C 8.58 0.97 9.5 0.01 9.5 0.01 9.5 0.01 18.99 9.08 18.99 9.08 18.99 9.08 18.07 10.04 18.07 10.04 18.07 10.04 8.58 0.97 8.58 0.97M 10.42 0.97C 10.42 0.97 9.5 0.01 9.5 0.01 9.5 0.01 8.58 0.97 8.58 0.97 8.58 0.97 9.5 0.01 9.5 0.01 9.5 0.01 10.42 0.97 10.42 0.97 10.42 0.97 10.42 0.97 10.42 0.97Z" fill="rgb(0,1,3)" opacity="0.46"/></svg>