<?xml version="1.0" encoding="utf-8"?>
<svg xmlns="http://www.w3.org/2000/svg"
	xmlns:xlink="http://www.w3.org/1999/xlink"
	width="19px" height="11px" viewBox="0 0 19 11">
<path fillRule="evenodd" d="M 18.06 0.77C 18.06 0.77 18.99 1.72 18.99 1.72 18.99 1.72 9.5 10.99 9.5 10.99 9.5 10.99 8.57 10.04 8.57 10.04 8.57 10.04 18.06 0.77 18.06 0.77M 10.43 10.04C 10.43 10.04 9.5 10.99 9.5 10.99 9.5 10.99 0.01 1.72 0.01 1.72 0.01 1.72 0.94 0.77 0.94 0.77 0.94 0.77 10.43 10.04 10.43 10.04M 9.5 10.99C 9.5 10.99 10.43 10.04 10.43 10.04 10.43 10.04 9.5 10.99 9.5 10.99 9.5 10.99 9.5 10.99 9.5 10.99ZM 9.5 10.99C 9.5 10.99 8.57 10.04 8.57 10.04 8.57 10.04 9.5 10.99 9.5 10.99 9.5 10.99 9.5 10.99 9.5 10.99Z" fill="rgb(0,1,3)" opacity="0.46"/></svg>